<?xml version="1.0" encoding="UTF-8" standalone="no"?>
<!-- Created with Inkscape (http://www.inkscape.org/) -->

<svg
   xmlns:dc="http://purl.org/dc/elements/1.1/"
   xmlns:cc="http://creativecommons.org/ns#"
   xmlns:rdf="http://www.w3.org/1999/02/22-rdf-syntax-ns#"
   xmlns:svg="http://www.w3.org/2000/svg"
   xmlns="http://www.w3.org/2000/svg"
   xmlns:sodipodi="http://sodipodi.sourceforge.net/DTD/sodipodi-0.dtd"
   xmlns:inkscape="http://www.inkscape.org/namespaces/inkscape"
   id="svg2403"
   sodipodi:version="0.32"
   inkscape:version="0.92.4 (5da689c313, 2019-01-14)"
   width="702.11346"
   height="572.37793"
   xml:space="preserve"
   sodipodi:docname="crossbones.svg"
   inkscape:output_extension="org.inkscape.output.svg.inkscape"
   version="1.1"><metadata
     id="metadata2408"><rdf:RDF><cc:Work
         rdf:about=""><dc:format>image/svg+xml</dc:format><dc:type
           rdf:resource="http://purl.org/dc/dcmitype/StillImage" /><dc:title></dc:title></cc:Work></rdf:RDF></metadata><defs
     id="defs2406"><inkscape:perspective
       sodipodi:type="inkscape:persp3d"
       inkscape:vp_x="0 : 526.18109 : 1"
       inkscape:vp_y="0 : 1000 : 0"
       inkscape:vp_z="744.09448 : 526.18109 : 1"
       inkscape:persp3d-origin="372.04724 : 350.78739 : 1"
       id="perspective2410" /></defs><sodipodi:namedview
     inkscape:window-height="1578"
     inkscape:window-width="2878"
     inkscape:pageshadow="2"
     inkscape:pageopacity="0.0"
     guidetolerance="10.0"
     gridtolerance="10.0"
     objecttolerance="10.0"
     borderopacity="1.0"
     bordercolor="#666666"
     pagecolor="#ffffff"
     id="base"
     showgrid="false"
     inkscape:zoom="0.47070707"
     inkscape:cx="353.15508"
     inkscape:cy="288.124"
     inkscape:window-x="0"
     inkscape:window-y="20"
     inkscape:current-layer="g2412"
     fit-margin-top="0"
     fit-margin-left="0"
     fit-margin-right="0"
     fit-margin-bottom="0"
     inkscape:window-maximized="1" /><g
     id="g2412"
     inkscape:groupmode="layer"
     inkscape:label="Crossbones_(PSF)"
     transform="matrix(1.25,0,0,-1.25,-29.344919,779.25395)"><path
       d="m 515.5781,165.5008 c -5.7325,3.2128 -8.9453,8.6938 -13.2919,13.4813 -33.8928,30.8055 -82.3377,47.3113 -123.2859,65.7694 -29.609,14.3635 -56.1943,33.5775 -89.3307,33.5775 -1.2594,-0.252 -2.5194,-0.504 -3.7794,-0.8189 C 230.9564,253.4451 172.0539,234.1046 119.5143,205.1887 98.6621,189.3138 80.519,154.9803 53.7452,184.0221 c -8.631,15.2453 -42.0823,50.2086 -14.4896,61.9897 5.796,0 -10.0794,-10.1429 -0.756,-18.8994 2.772,0 5.8586,4.5986 8.7568,6.2991 12.0316,0 -3.087,11.7179 8.0634,11.7179 16.5056,-3.9059 30.8687,-1.1968 47.8151,-1.0709 -1.9528,-9.7645 -35.5935,-1.4491 -40.5709,-8.4419 0,-8.1896 14.8051,-1.0704 9.3243,-9.5754 0,-21.6712 55.5004,5.2917 61.4225,6.9295 17.828,1.5755 32.5693,13.0411 49.5788,15.9384 7.3075,2.4571 59.3433,16.5682 43.6573,28.1599 -15.6238,0 -34.7749,-9.8906 -48.6343,-16.8202 -8.6933,-7.1816 -18.9621,-4.0946 -30.6797,-4.6621 -5.1026,-4.0944 -37.9871,-15.3712 -42.2708,-11.0869 13.6704,9.7642 36.8532,10.3312 53.1692,17.8906 7.6232,2.3941 15.2458,2.3312 20.8525,7.4971 16.1903,7.9375 32.8847,15.6231 49.2639,23.6239 4.7245,4.7245 -4.1579,15.1194 -8.379,18.017 -30.7423,13.4189 -61.4851,27.7824 -92.4168,40.6965 -5.3552,0 -9.3866,-2.52 -14.6784,-2.52 -13.6706,7.4967 -22.4903,14.1749 -37.7983,6.2367 -8.0007,-7.3074 7.6856,-16.3162 -5.292,-26.7738 -22.2378,-12.4732 -52.5395,9.1347 -45.0428,34.1448 9.5755,-1.8905 9.3864,-25.8293 24.6946,-17.3875 9.7648,-1.197 0.7563,6.4888 -2.2674,11.0875 -3.5909,8.0005 -4.6624,15.0565 -2.9611,23.6242 -0.9448,7.3703 -9.5125,4.7248 -9.1976,8.0634 14.3003,7.1187 28.1597,-8.5674 37.3576,11.2136 1.3229,6.6779 18.71,35.0266 21.6708,17.1981 -3.6541,-1.6376 -4.9768,-2.0787 -6.9928,-5.4805 -3.0237,-10.5835 -15.6231,-12.8512 -8.8194,-25.136 -0.5043,-8.9455 -25.6399,7.1187 -25.6399,-16.3791 5.0397,-9.1347 25.0098,0.5669 28.1596,6.2997 0,11.6544 7.2451,4.2208 13.7333,1.0077 12.9776,-1.6381 18.1434,3.2131 28.9162,-6.6776 22.7418,-12.7252 43.4679,-25.9545 69.2337,-29.4199 9.324,3.4654 -20.0962,24.6319 -23.1826,26.5224 -9.2608,10.9607 14.9301,-4.9774 19.2138,-0.6934 -1.0077,12.1587 -4.8506,21.3562 -13.0405,30.2386 -8.2525,13.9859 6.7411,18.2064 6.7411,32.6956 -13.6077,36.2866 -26.2069,77.1721 -13.8595,115.6003 1.0704,22.1119 41.4522,63.5641 64.9503,63.5641 9.6386,-5.2914 9.5125,4.788 17.5762,8.8197 36.3495,8.4422 86.2435,6.6147 122.7186,-3.7797 52.3508,-27.3407 74.8409,-77.7387 68.6041,-135.5066 -2.5829,-13.7967 0.3152,-22.4277 -3.7797,-35.6572 -3.8429,-9.0718 -7.5597,-17.9538 -10.5202,-27.3408 0,-28.4748 3.0234,-25.5767 -14.6155,-46.114 -5.1029,-16.6943 34.1442,9.9533 40.633,14.6781 11.0248,15.9384 12.8514,19.0879 32.5695,18.2693 4.2208,1.3232 9.0717,3.7803 13.4816,3.1501 -5.2288,-24.6322 -32.8845,-1.3229 -33.8928,-25.7661 -1.5752,-1.5749 -4.6615,-1.953 -6.8034,-2.5829 -27.0261,-13.7965 -55.8153,-26.8367 -84.4166,-36.9164 -8.5051,-4.3467 -21.0413,-20.285 -1.3229,-17.6392 27.7821,8.2528 54.1777,21.86 79.8177,35.278 1.8275,1.5123 11.0874,6.6153 10.394,8.4422 -8.0005,5.3552 9.7654,1.6378 11.403,1.6378 4.0949,2.835 6.4888,4.4728 9.0714,8.6307 2.0163,20.7261 9.5128,5.7328 21.1674,15.7493 5.0397,6.6149 12.0957,6.2997 13.9221,13.9856 11.9067,0.8818 -0.6928,-6.8673 -0.6928,-11.2766 4.9771,-6.993 15.6864,-11.1506 24.128,-11.1506 33.6407,15.0565 53.7369,-35.9087 35.4676,-58.7772 -12.9146,-8.5672 -28.7898,-8.252 -35.2156,7.6864 -8.6307,36.7274 -32.2546,27.089 -60.6033,17.5133 -39.4997,-14.8039 -82.8414,-27.4669 -119.7584,-47.9412 -13.8595,-11.0875 23.4351,-19.088 27.9711,-26.6477 -9.1346,-0.8818 -31.5618,10.3947 -37.4834,4.4731 -22.994,-0.3784 -10.5202,-5.2923 1.3862,-12.4107 1.1336,-1.449 2.3309,-2.8975 3.5274,-4.4098 44.7287,-22.049 89.4563,-38.7437 133.1759,-61.359 14.9312,-4.8513 21.8611,-12.2848 22.4277,6.237 3.9059,2.645 16.5683,10.772 7.6862,13.9215 -10.0171,0 -64.0058,13.7968 -66.2738,23.6872 7.3078,0 18.3325,-6.2994 24.3803,-8.5677 16.5682,-8.2525 32.3804,-8.3787 50.3977,-8.8197 5.6064,-0.756 20.7893,-5.859 23.2458,-11.5286 0,-14.8042 -12.3472,12.2846 -15.1821,2.331 6.9925,-9.3235 15.9381,-6.8037 8.0637,-21.7335 -3.276,-15.687 -12.1586,-9.1982 -2.5829,2.2048 3.7168,8.9452 0.0629,14.4892 -11.4656,14.4892 -19.1511,-6.6778 15.0562,-14.4892 -6.3,-17.6394 -6.1106,-3.4021 0.3782,-14.3637 7.056,-13.4813 12.7253,5.7328 -3.5909,-15.3717 -9.9535,-17.6394 -2.3942,-0.0629 -4.788,-0.1262 -7.1822,-0.252"
       style="fill:#000000;fill-opacity:1;fill-rule:evenodd;stroke:none"
       id="path2414"
       inkscape:connector-curvature="0" /><path
       d="m 61.1787,194.1018 c -12.7885,10.2053 18.3325,27.9079 17.3243,6.5514 -4.2208,-3.4648 -11.9699,-4.5357 -17.3243,-6.5514"
       style="fill:#ffffff;fill-opacity:1;fill-rule:evenodd;stroke:none"
       id="path2416"
       inkscape:connector-curvature="0" /><path
       d="m 51.0993,204.9999 c -7.812,4.7877 -17.3242,16.6946 -0.5666,11.9069 -3.9694,22.6157 23.6233,4.2205 8.1263,-2.3939 -11.9069,0 -3.465,-0.6301 -4.0952,-8.8197 -0.504,-0.441 -0.504,-0.441 -3.4645,-0.6933"
       style="fill:#ffffff;fill-opacity:1;fill-rule:evenodd;stroke:none"
       id="path2418"
       inkscape:connector-curvature="0" /><path
       d="m 304.3483,284.8175 c -11.4659,8.2531 7.6858,15.1824 7.6858,3.7174 -1.6384,-3.7174 -4.032,-3.4651 -7.6858,-3.7174"
       style="fill:#ffffff;fill-opacity:1;fill-rule:evenodd;stroke:none"
       id="path2420"
       inkscape:connector-curvature="0" /><path
       d="m 319.0269,286.4557 c -11.2765,6.1103 9.6384,11.0245 -6.5517,15.8751 -11.4027,-5.1026 -7.056,0.5043 -15.0565,3.7168 -12.3475,-9.6386 -18.9621,-2.1416 -21.041,10.647 -6.9296,12.5991 9.8274,12.0322 16.9463,15.8125 6.8037,0 16.3792,-16.0645 16.6944,-0.0633 4.5357,3.528 5.4805,-2.205 8.0002,-0.441 6.7411,9.3234 13.0405,-9.1979 12.5371,0.252 -4.2211,12.0325 -0.7563,11.9695 5.4173,21.9231 0,15.1192 -19.592,-23.057 -20.537,-13.0405 0.3152,0.4408 0.6298,0.9448 1.0077,1.4491 14.9306,8.9453 -17.513,45.5468 3.276,50.7126 0.6298,8.8198 -12.5362,28.3488 -4.5354,34.5223 13.67,0 2.8343,-19.529 8.8194,-28.4745 5.1026,-4.4731 21.041,-15.6235 27.7186,-15.6235 15.9383,3.9691 35.9084,1.575 38.8695,21.6715 1.6378,4.5357 3.2128,22.0487 10.5205,18.0802 2.3306,-6.1742 1.26,-31.0578 11.5285,-27.152 22.4901,16.82 -10.1427,-53.674 -30.0501,-43.0902 0,5.9215 14.8048,13.2922 1.5752,13.2922 -10.1426,-8.2525 1.3856,-12.0955 -9.7013,-17.6392 -20.1597,-4.2837 -23.6871,-13.4813 -24.6325,-33.4516 -2.2045,-7.6856 -17.261,-12.1581 -24.3164,-11.0243 -5.9216,-2.6461 -5.9851,-11.844 1.0077,-10.8986 8.3786,9.9536 8.8829,-7.6859 2.1419,-4.536 -1.1339,4.7251 -6.1107,-1.6379 -9.6384,-2.5197"
       style="fill:#ffffff;fill-opacity:1;fill-rule:evenodd;stroke:none"
       id="path2422"
       inkscape:connector-curvature="0" /><path
       d="m 277.4483,287.3375 c -5.9845,4.2835 -0.9445,6.6776 3.5283,2.9611 0,-2.7088 -1.2603,-2.4571 -3.5283,-2.9611"
       style="fill:#ffffff;fill-opacity:1;fill-rule:evenodd;stroke:none"
       id="path2424"
       inkscape:connector-curvature="0" /><path
       d="m 265.29,288.5975 c -4.2838,3.4016 -2.1419,4.4731 1.5749,6.9296 4.2211,-0.1891 1.5746,-6.0477 -1.5749,-6.9296"
       style="fill:#ffffff;fill-opacity:1;fill-rule:evenodd;stroke:none"
       id="path2426"
       inkscape:connector-curvature="0" /><path
       d="m 289.2291,289.4165 c -6.3629,8.7568 11.2762,11.0248 3.7797,0.693 -0.8189,-0.4407 -0.8189,-0.4407 -3.7797,-0.693"
       style="fill:#ffffff;fill-opacity:1;fill-rule:evenodd;stroke:none"
       id="path2428"
       inkscape:connector-curvature="0" /><path
       d="m 340.4458,289.8575 c -6.8038,3.0238 -0.1894,8.6307 4.977,8.6307 12.2845,9.0717 -0.0629,-5.9848 -4.977,-8.6307"
       style="fill:#ffffff;fill-opacity:1;fill-rule:evenodd;stroke:none"
       id="path2430"
       inkscape:connector-curvature="0" /><path
       d="m 252.6908,293.1959 c -8.8829,3.9694 7.0554,12.0957 7.6856,1.1344 -2.52,-0.3781 -5.1032,-0.756 -7.6856,-1.1344"
       style="fill:#ffffff;fill-opacity:1;fill-rule:evenodd;stroke:none"
       id="path2432"
       inkscape:connector-curvature="0" /><path
       d="m 571.4569,330.1758 c -3.9053,5.2288 -5.3549,3.7168 -4.9136,11.3392 -4.7877,6.8669 -32.4436,53.3588 -3.9058,40.5706 13.1663,-12.0955 25.1994,-34.8375 11.8431,-51.217 -1.0074,-0.1888 -2.0157,-0.4405 -3.0237,-0.6928"
       style="fill:#ffffff;fill-opacity:1;fill-rule:evenodd;stroke:none"
       id="path2434"
       inkscape:connector-curvature="0" /><path
       d="m 342.1468,357.4534 c -0.8818,6.1109 -7.0557,9.8906 -0.504,13.7335 8.8198,10.7725 8.5678,2.2051 8.0638,-6.9925 -7.8118,-0.5672 -0.819,-4.536 -7.5598,-6.741"
       style="fill:#000000;fill-opacity:1;fill-rule:evenodd;stroke:none"
       id="path2436"
       inkscape:connector-curvature="0" /><path
       d="m 349.2655,360.4144 c 0.1891,1.7011 0.1891,2.016 1.7011,2.52 0,-2.0157 0.252,-1.764 -1.7011,-2.52"
       style="fill:#000000;fill-opacity:1;fill-rule:evenodd;stroke:none"
       id="path2438"
       inkscape:connector-curvature="0" /><path
       d="m 535.7378,365.0131 c -11.0248,5.229 -18.5845,10.7725 -31.5621,9.8909 -7.3071,4.5357 3.5283,9.7016 6.1739,12.9776 10.2688,4.5357 40.3815,-17.8915 25.3882,-22.8685"
       style="fill:#ffffff;fill-opacity:1;fill-rule:evenodd;stroke:none"
       id="path2440"
       inkscape:connector-curvature="0" /><path
       d="m 25.0183,366.7139 c -3.78,4.9141 0.3781,16.3797 5.9216,16.7572 0,-6.7396 -1.3232,-11.8431 -5.9216,-16.7572"
       style="fill:#000000;fill-opacity:1;fill-rule:evenodd;stroke:none"
       id="path2442"
       inkscape:connector-curvature="0" /><path
       d="m 333.7058,369.612 c -4.6624,3.4654 2.3936,5.6069 1.8264,0.756 -0.5672,-0.2517 -1.1971,-0.504 -1.8264,-0.756"
       style="fill:#000000;fill-opacity:1;fill-rule:evenodd;stroke:none"
       id="path2444"
       inkscape:connector-curvature="0" /><path
       d="m 400.4824,371.7539 c -2.772,1.3861 7.3077,20.6005 7.3077,10.4578 -2.2047,-4.9771 -2.6458,-8.1266 -7.3077,-10.4578"
       style="fill:#000000;fill-opacity:1;fill-rule:evenodd;stroke:none"
       id="path2446"
       inkscape:connector-curvature="0" /><path
       d="m 156.494,375.0931 c -8.2531,2.709 -38.6172,14.8042 -37.9874,21.1671 7.1816,3.2125 38.869,-14.9306 41.326,-21.1671 -1.0712,0 -2.205,0 -3.3386,0"
       style="fill:#000000;fill-opacity:1;fill-rule:evenodd;stroke:none"
       id="path2448"
       inkscape:connector-curvature="0" /><path
       d="m 249.7297,380.1328 c -12.096,4.8506 -37.798,7.0554 -36.3498,23.4978 -1.7008,4.5365 -4.7874,14.1117 2.8985,10.2691 3.4015,-4.7248 6.8037,-10.647 8.63,-12.915 8.0638,-5.8583 39.2477,-6.9296 39.2477,-15.9383 -4.5987,-2.2048 -9.4496,-3.9685 -14.4264,-4.9136"
       style="fill:#ffffff;fill-opacity:1;fill-rule:evenodd;stroke:none"
       id="path2450"
       inkscape:connector-curvature="0" /><path
       d="m 350.9666,388.1333 c -4.095,1.7011 -5.1659,2.8981 -7.6233,6.4888 -6.173,3.969 -14.9298,2.5197 -14.4258,11.7173 3.0867,3.0869 7.0555,-5.1027 7.0555,-0.1888 -5.6699,8.1896 -8.5045,15.6231 -2.4568,25.0098 5.2917,1.5123 1.1971,-17.1984 6.0477,-22.9933 6.2997,-3.6544 10.3312,-2.0794 11.1507,-9.8912 3.7167,-5.3549 23.057,4.9139 15.8751,-7.3706 -4.5354,-2.016 -10.6464,-2.1424 -15.6231,-2.772"
       style="fill:#ffffff;fill-opacity:1;fill-rule:evenodd;stroke:none"
       id="path2452"
       inkscape:connector-curvature="0" /><path
       d="m 100.6149,389.7703 c -10.3317,7.3715 -5.9216,15.3723 6.0477,10.2694 0,-3.3387 -2.5197,-9.6384 -6.0477,-10.2694"
       style="fill:#000000;fill-opacity:1;fill-rule:evenodd;stroke:none"
       id="path2454"
       inkscape:connector-curvature="0" /><path
       d="m 305.6085,400.2917 c -11.2141,6.552 -6.9298,15.4975 -5.733,28.2228 5.9848,21.3565 13.6074,-26.6482 5.733,-28.2228"
       style="fill:#ffffff;fill-opacity:1;fill-rule:evenodd;stroke:none"
       id="path2456"
       inkscape:connector-curvature="0" /><path
       d="m 413.9637,406.5917 c -8.7568,10.4572 -5.1026,33.5769 1.3859,43.7201 0,12.2213 3.0872,18.1429 13.9226,27.0255 9.8904,0 -4.5989,-25.3876 -5.9218,-28.3484 -0.6928,-8.9459 -3.6539,-15.8125 -6.2998,-24.38 -0.0629,-1.197 1.1968,-17.1983 -3.0869,-18.0172"
       style="fill:#ffffff;fill-opacity:1;fill-rule:evenodd;stroke:none"
       id="path2458"
       inkscape:connector-curvature="0" /><path
       d="m 319.8458,434.7513 c -9.8274,8.0637 -10.8983,25.1989 2.3939,30.365 0.3149,3.3384 -17.2613,-0.2526 -23.624,1.8267 -3.465,-2.0793 11.78,-32.8218 -6.3629,-19.9704 -5.5437,12.0328 -19.2773,28.2231 -34.0812,23.3093 -8.5677,0 4.536,-6.2997 -5.544,-6.2997 -11.5914,2.9608 -16.4424,3.8429 -27.2149,-1.7011 -8.1266,0 11.5285,8.5677 12.2845,9.0088 0,4.9771 -25.325,0.8818 -15.4973,12.6624 -0.441,10.2687 1.1968,12.7885 -9.3866,12.7885 -4.536,-2.3942 1.3229,-13.2925 -5.3544,-9.1347 -6.8669,21.1672 -10.1429,25.1359 -4.0955,46.4292 6.6779,0 -2.3935,-19.2143 18.2064,-17.954 0.6301,3.5277 0.6301,3.5277 1.5123,5.354 10.3314,7.7491 4.4728,23.9395 8.3154,35.5938 0,2.8352 -7.4336,24.569 0.3779,23.6243 3.7168,-3.7168 3.0869,10.0794 3.0869,12.1583 11.4659,6.3 7.2448,-13.2922 17.3874,1.0709 6.6779,5.4805 7.3077,7.8115 16.3163,7.8115 5.6698,2.3309 15.6863,12.5368 21.4191,6.8037 2.2677,0 3.4019,1.5749 6.0477,1.5749 6.2997,-6.8666 12.0957,9.0091 21.7338,0.8822 2.7717,0 3.276,3.6538 6.4256,3.276 1.9533,-1.9531 1.9533,-1.9531 4.9141,-3.7165 24.128,-3.9062 46.9333,-6.8043 66.4623,-22.3016 2.5197,-4.0317 3.0869,-6.5517 7.4965,-7.4962 27.2151,-22.5539 25.325,-45.4215 25.325,-77.0463 5.4808,-14.7413 9.0085,-5.2917 -3.5907,-20.033 -4.221,-11.0877 -12.4735,-3.717 -7.6861,6.2997 6.2371,5.7331 -2.7714,17.513 2.8981,25.5138 0,3.7168 -1.7008,6.9931 -1.7008,10.4576 5.5438,12.0957 -8.4418,20.0962 -5.0397,26.8999 0,4.5358 -11.5917,29.7978 -15.1826,17.8283 2.8981,-7.0555 5.1658,-16.3795 9.324,-22.868 0,-5.7328 3.3389,-35.4676 -2.4571,-35.4676 -1.5123,4.788 -2.016,22.049 -6.1738,23.4351 -0.063,-7.0557 1.7642,-19.5919 -1.5118,-26.3959 -11.0877,-5.1656 -9.8277,-8.0011 -13.418,-19.9701 1.3853,-9.0085 8.441,-7.0557 8.441,-17.2613 -2.9608,-10.9616 8.568,-26.5223 -4.8507,-18.6474 -6.1106,1.7643 -20.9151,3.1501 -24.3799,9.2611 -13.1032,5.1655 -24.569,-0.8193 -34.2077,-9.135 -2.4568,-6.048 -2.1418,-18.0802 -9.0085,-18.8362"
       style="fill:#ffffff;fill-opacity:1;fill-rule:evenodd;stroke:none"
       id="path2460"
       inkscape:connector-curvature="0" /><path
       d="m 407.664,453.6505 c -0.6304,6.4258 2.0157,3.2127 1.764,0.2522 -0.5669,-0.0632 -1.1341,-0.1261 -1.764,-0.2522"
       style="fill:#ffffff;fill-opacity:1;fill-rule:evenodd;stroke:none"
       id="path2462"
       inkscape:connector-curvature="0" /><path
       d="m 378.2441,462.4699 c -4.8507,2.7723 4.9135,5.4181 4.725,0.6933 -0.945,-0.4407 -0.945,-0.4407 -4.725,-0.6933"
       style="fill:#000000;fill-opacity:1;fill-rule:evenodd;stroke:none"
       id="path2464"
       inkscape:connector-curvature="0" /><path
       d="m 201.4109,541.8468 c -4.221,12.7888 3.9688,7.4968 1.8267,0.693 -0.504,-0.441 -0.504,-0.441 -1.8267,-0.693"
       style="fill:#ffffff;fill-opacity:1;fill-rule:evenodd;stroke:none"
       id="path2466"
       inkscape:connector-curvature="0" /><path
       d="m 244.2487,601.0642 c -0.0627,1.1344 -0.1256,2.268 -0.2515,3.4022 3.0867,7.2442 8.6304,-0.6302 0.2515,-3.4022"
       style="fill:#ffffff;fill-opacity:1;fill-rule:evenodd;stroke:none"
       id="path2468"
       inkscape:connector-curvature="0" /></g></svg>