<?xml version="1.0" encoding="UTF-8" standalone="no"?>
<!-- Svg Vector Icons : http://www.onlinewebfonts.com/icon -->

<svg
   xmlns:dc="http://purl.org/dc/elements/1.1/"
   xmlns:cc="http://creativecommons.org/ns#"
   xmlns:rdf="http://www.w3.org/1999/02/22-rdf-syntax-ns#"
   xmlns:svg="http://www.w3.org/2000/svg"
   xmlns="http://www.w3.org/2000/svg"
   xmlns:sodipodi="http://sodipodi.sourceforge.net/DTD/sodipodi-0.dtd"
   xmlns:inkscape="http://www.inkscape.org/namespaces/inkscape"
   version="1.1"
   x="0px"
   y="0px"
   viewBox="0 0 1000 1000"
   enable-background="new 0 0 1000 1000"
   xml:space="preserve"
   id="svg4847"
   sodipodi:docname="lost.svg"
   inkscape:version="0.92.4 (5da689c313, 2019-01-14)"><defs
   id="defs4851" /><sodipodi:namedview
   pagecolor="#ffffff"
   bordercolor="#666666"
   borderopacity="1"
   objecttolerance="10"
   gridtolerance="10"
   guidetolerance="10"
   inkscape:pageopacity="0"
   inkscape:pageshadow="2"
   inkscape:window-width="2878"
   inkscape:window-height="1578"
   id="namedview4849"
   showgrid="false"
   inkscape:zoom="1.405"
   inkscape:cx="500"
   inkscape:cy="500"
   inkscape:window-x="0"
   inkscape:window-y="20"
   inkscape:window-maximized="1"
   inkscape:current-layer="svg4847" />
<metadata
   id="metadata4833"> Svg Vector Icons : http://www.onlinewebfonts.com/icon <rdf:RDF><cc:Work
     rdf:about=""><dc:format>image/svg+xml</dc:format><dc:type
       rdf:resource="http://purl.org/dc/dcmitype/StillImage" /><dc:title></dc:title></cc:Work></rdf:RDF></metadata>
<g
   id="g4845"
   style="fill:#ffffff"><g
     transform="matrix(0.1,0,0,-0.1,0,511)"
     id="g4843"
     style="fill:#ffffff"><path
       d="m 4484.3,110 v -4339.7 h 520.2 520.2 V 110 4449.7 h -520.2 -520.2 z"
       id="path4835"
       inkscape:connector-curvature="0"
       style="fill:#ffffff" /><path
       d="M 5821.9,3008.1 V 1863.7 l 1569.4,3 h 1566.5 l 401.3,475.6 c 220,258.6 433.9,511.2 469.6,561.8 l 71.3,86.2 -472.6,579.6 -469.6,582.6 H 7391.3 5821.9 Z m 3400.4,502.3 c 208.1,-255.6 386.4,-481.5 392.3,-502.3 8.9,-20.8 -154.5,-240.8 -365.6,-487.5 l -380.5,-445.9 -1432.7,-3 H 6000.2 v 930.4 c 0,514.2 8.9,942.3 20.8,951.2 8.9,11.9 650.9,20.8 1420.8,20.8 h 1403 z"
       id="path4837"
       inkscape:connector-curvature="0"
       style="fill:#ffffff" /><path
       d="M 560.7,2484.9 C 308.1,2187.7 100,1935 100,1917.2 c 0,-14.9 208.1,-288.3 460.7,-603.4 l 460.7,-576.6 1569.4,-3 H 4157.3 V 1878.6 3023 H 2590.9 1021.4 Z M 3973,1887.5 3979,942.3 H 2546.3 1110.6 l -380.5,478.6 c -211,261.6 -374.5,493.4 -368.6,511.2 8.9,20.8 184.3,231.9 392.4,475.6 l 377.5,437 1414.9,-6 1417.8,-8.9 z"
       id="path4839"
       inkscape:connector-curvature="0"
       style="fill:#ffffff" /><path
       d="m 5818.9,1492.2 c 0,-74.3 -3,-434 -3,-802.5 0,-368.5 3,-734.2 3,-817.4 l 3,-148.6 h 992.8 992.8 l 437,475.6 436.9,475.6 -436.9,475.6 -439.9,475.6 H 6814.8 5822 Z"
       id="path4841"
       inkscape:connector-curvature="0"
       style="fill:#ffffff" /></g></g>
</svg>