<?xml version="1.0" encoding="UTF-8" standalone="no"?>
<svg
   xmlns:dc="http://purl.org/dc/elements/1.1/"
   xmlns:cc="http://creativecommons.org/ns#"
   xmlns:rdf="http://www.w3.org/1999/02/22-rdf-syntax-ns#"
   xmlns:svg="http://www.w3.org/2000/svg"
   xmlns="http://www.w3.org/2000/svg"
   xmlns:sodipodi="http://sodipodi.sourceforge.net/DTD/sodipodi-0.dtd"
   xmlns:inkscape="http://www.inkscape.org/namespaces/inkscape"
   height="496pt"
   viewBox="0 0 496.002 496"
   width="496pt"
   version="1.1"
   id="svg4588"
   sodipodi:docname="sinking.svg"
   inkscape:version="0.92.4 (5da689c313, 2019-01-14)">
  <metadata
     id="metadata4594">
    <rdf:RDF>
      <cc:Work
         rdf:about="">
        <dc:format>image/svg+xml</dc:format>
        <dc:type
           rdf:resource="http://purl.org/dc/dcmitype/StillImage" />
      </cc:Work>
    </rdf:RDF>
  </metadata>
  <defs
     id="defs4592" />
  <sodipodi:namedview
     pagecolor="#ffffff"
     bordercolor="#666666"
     borderopacity="1"
     objecttolerance="10"
     gridtolerance="10"
     guidetolerance="10"
     inkscape:pageopacity="0"
     inkscape:pageshadow="2"
     inkscape:window-width="2878"
     inkscape:window-height="1578"
     id="namedview4590"
     showgrid="false"
     inkscape:zoom="2.124496"
     inkscape:cx="330.66667"
     inkscape:cy="330.66667"
     inkscape:window-x="0"
     inkscape:window-y="20"
     inkscape:window-maximized="1"
     inkscape:current-layer="svg4588" />
  <path
     d="m440 448c-12.457031 0-24.167969 4.847656-32.96875 13.65625l-9.375 9.375c-11.566406 11.5625-31.746094 11.5625-43.3125 0l-9.375-9.375c-8.800781-8.808594-20.511719-13.65625-32.96875-13.65625s-24.167969 4.847656-32.96875 13.65625l-9.375 9.375c-11.566406 11.5625-31.746094 11.5625-43.3125 0l-9.375-9.375c-8.800781-8.808594-20.511719-13.65625-32.96875-13.65625s-24.167969 4.847656-32.96875 13.65625l-9.375 9.375c-11.566406 11.5625-31.746094 11.5625-43.3125 0l-9.375-9.375c-8.800781-8.808594-20.511719-13.65625-32.96875-13.65625s-24.167969 4.847656-32.96875 13.65625l-20.6875 20.6875 11.3125 11.3125 20.6875-20.6875c11.566406-11.558594 31.746094-11.558594 43.3125 0l9.375 9.375c8.800781 8.808594 20.511719 13.65625 32.96875 13.65625s24.167969-4.847656 32.96875-13.65625l9.375-9.375c11.566406-11.558594 31.746094-11.558594 43.3125 0l9.375 9.375c8.800781 8.808594 20.511719 13.65625 32.96875 13.65625s24.167969-4.847656 32.96875-13.65625l9.375-9.375c11.566406-11.558594 31.746094-11.558594 43.3125 0l9.375 9.375c8.800781 8.808594 20.511719 13.65625 32.96875 13.65625s24.167969-4.847656 32.96875-13.65625l9.375-9.375c11.566406-11.558594 31.746094-11.558594 43.3125 0l20.6875 20.6875 11.3125-11.3125-20.6875-20.6875c-8.800781-8.808594-20.511719-13.65625-32.96875-13.65625zm0 0"
     id="path4576"
     style="fill:#ffffff" />
  <path
     d="m440 400c-12.457031 0-24.167969 4.847656-32.96875 13.65625l-9.375 9.375c-11.566406 11.5625-31.746094 11.5625-43.3125 0l-9.375-9.375c-8.800781-8.808594-20.511719-13.65625-32.96875-13.65625s-24.167969 4.847656-32.96875 13.65625l-9.375 9.375c-11.566406 11.5625-31.746094 11.5625-43.3125 0l-9.375-9.375c-8.800781-8.808594-20.511719-13.65625-32.96875-13.65625s-24.167969 4.847656-32.96875 13.65625l-9.375 9.375c-11.566406 11.5625-31.746094 11.5625-43.3125 0l-9.375-9.375c-8.800781-8.808594-20.511719-13.65625-32.96875-13.65625s-24.167969 4.847656-32.96875 13.65625l-20.6875 20.6875 11.3125 11.3125 20.6875-20.6875c11.566406-11.558594 31.746094-11.558594 43.3125 0l9.375 9.375c8.800781 8.808594 20.511719 13.65625 32.96875 13.65625s24.167969-4.847656 32.96875-13.65625l9.375-9.375c11.566406-11.558594 31.746094-11.558594 43.3125 0l9.375 9.375c8.800781 8.808594 20.511719 13.65625 32.96875 13.65625s24.167969-4.847656 32.96875-13.65625l9.375-9.375c11.566406-11.558594 31.746094-11.558594 43.3125 0l9.375 9.375c8.800781 8.808594 20.511719 13.65625 32.96875 13.65625s24.167969-4.847656 32.96875-13.65625l9.375-9.375c11.566406-11.558594 31.746094-11.558594 43.3125 0l20.6875 20.6875 11.3125-11.3125-20.6875-20.6875c-8.800781-8.808594-20.511719-13.65625-32.96875-13.65625zm0 0"
     id="path4578"
     style="fill:#ffffff" />
  <path
     d="m469.65625 138.34375c-3.128906-3.125-8.183594-3.125-11.3125 0l-26.34375 26.34375-28.6875-28.6875 10.34375-10.34375-11.3125-11.3125-50.34375 50.34375-28.6875-28.6875 10.34375-10.34375-11.3125-11.3125-34.34375 34.34375-58.34375-58.34375c-3.128906-3.125-8.183594-3.125-11.3125 0l-32 32c-3.128906 3.128906-3.128906 8.183594 0 11.3125l58.34375 58.34375-12.6875 12.6875-58.34375-58.34375c-3.128906-3.125-8.183594-3.125-11.3125 0l-32 32c-3.128906 3.128906-3.128906 8.183594 0 11.3125l58.34375 58.34375-8 8h-140.6875c-2.121094 0-4.160156.839844-5.65625 2.34375l-32 32 11.3125 11.3125 29.65625-29.65625h121.375l-85.945312 85.945312c-6.871094-3.855468-14.644532-5.945312-22.742188-5.945312-12.457031 0-24.167969 4.847656-32.96875 13.65625l-20.6875 20.6875 11.3125 11.3125 20.6875-20.6875c11.566406-11.558594 31.746094-11.558594 43.3125 0l9.375 9.375c8.800781 8.808594 20.511719 13.65625 32.96875 13.65625s24.167969-4.847656 32.96875-13.65625l9.375-9.375c11.566406-11.558594 31.746094-11.558594 43.3125 0l9.375 9.375c8.800781 8.808594 20.511719 13.65625 32.96875 13.65625s24.167969-4.847656 32.96875-13.65625l9.375-9.375c11.566406-11.558594 31.746094-11.558594 43.3125 0l9.375 9.375c8.800781 8.808594 20.511719 13.65625 32.96875 13.65625s24.167969-4.847656 32.96875-13.65625l9.375-9.375c11.566406-11.558594 31.746094-11.558594 43.3125 0l20.6875 20.6875 11.3125-11.3125-20.6875-20.6875c-3.320312-3.320312-7.058594-6.070312-11.089844-8.222656l15.777344-15.777344c1.503906-1.496094 2.34375-3.527344 2.34375-5.65625v-148.6875l13.65625-13.65625c3.128906-3.128906 3.128906-8.183594 0-11.3125zm-266.34375-10.34375 20.6875-20.6875 52.6875 52.6875-20.6875 20.6875zm-56 56 20.6875-20.6875 52.6875 52.6875-20.6875 20.6875zm-5.65625 191.03125c-11.566406 11.5625-31.746094 11.5625-43.3125 0l-7.03125-7.03125 220.6875-220.6875 28.6875 28.6875zm45.503906-22.878906 204.839844-204.839844 28.6875 28.6875-196.6875 196.6875-7.03125-7.03125c-8.058594-8.054688-18.542969-12.75-29.808594-13.503906zm82.496094 22.878906c-8.398438 8.394531-21.304688 10.609375-32.191406 6.816406l226.535156-226.535156 12.6875 12.6875zm194.34375-42.34375-19.527344 19.53125c-1.480468-.136719-2.96875-.21875-4.472656-.21875-12.457031 0-24.167969 4.847656-32.96875 13.65625l-9.375 9.375c-11.566406 11.5625-31.746094 11.5625-43.3125 0l-9.375-9.375c-8.058594-8.054688-18.554688-12.75-29.808594-13.503906l148.839844-148.839844zm0 0"
     id="path4580"
     style="fill:#ffffff" />
  <path
     d="m32 96h80c17.648438 0 32-14.351562 32-32 0-17.910156-15.105469-32.511719-32.800781-31.992188-3.710938-18.238281-19.878907-32.007812-39.199219-32.007812s-35.488281 13.769531-39.199219 32.007812c-17.746093-.320312-32.800781 14.082032-32.800781 31.992188 0 17.648438 14.351562 32 32 32zm0-48c1.726562 0 3.503906.335938 5.425781 1.03125 2.519531.929688 5.316407.515625 7.46875-1.078125 2.152344-1.585937 3.371094-4.136719 3.25-6.808594-.007812-.246093-.113281-.894531-.144531-1.144531 0-13.230469 10.769531-24 24-24s24 10.769531 24 23.714844c-.03125.253906-.136719 1.183594-.144531 1.4375-.121094 2.671875 1.097656 5.226562 3.25 6.808594 2.152343 1.585937 4.949219 1.992187 7.46875 1.078124 1.921875-.703124 3.699219-1.039062 5.425781-1.039062 8.824219 0 16 7.175781 16 16s-7.175781 16-16 16h-80c-8.824219 0-16-7.175781-16-16s7.175781-16 16-16zm0 0"
     id="path4582"
     style="fill:#ffffff" />
  <path
     d="m384 96h80c17.648438 0 32-14.351562 32-32 0-17.910156-14.960938-32.511719-32.800781-31.992188-3.710938-18.238281-19.878907-32.007812-39.199219-32.007812s-35.488281 13.769531-39.199219 32.007812c-17.863281-.320312-32.800781 14.082032-32.800781 31.992188 0 17.648438 14.351562 32 32 32zm0-48c1.726562 0 3.503906.335938 5.425781 1.03125 2.519531.929688 5.316407.515625 7.46875-1.078125 2.152344-1.585937 3.371094-4.136719 3.25-6.808594-.007812-.246093-.113281-.894531-.144531-1.144531 0-13.230469 10.769531-24 24-24s24 10.769531 24 23.714844c-.03125.253906-.136719 1.183594-.144531 1.4375-.121094 2.671875 1.097656 5.226562 3.25 6.808594 2.152343 1.585937 4.949219 1.992187 7.46875 1.078124 1.921875-.703124 3.699219-1.039062 5.425781-1.039062 8.824219 0 16 7.175781 16 16s-7.175781 16-16 16h-80c-8.824219 0-16-7.175781-16-16s7.175781-16 16-16zm0 0"
     id="path4584"
     style="fill:#ffffff" />
  <path
     d="m80 312c0-13.230469-10.769531-24-24-24s-24 10.769531-24 24c0 13.234375 10.769531 24 24 24s24-10.765625 24-24zm-32 0c0-4.414062 3.59375-8 8-8s8 3.585938 8 8c0 4.417969-3.59375 8-8 8s-8-3.582031-8-8zm0 0"
     id="path4586"
     style="fill:#ffffff" />
</svg>
